<svg width="16" height="16" viewBox="0 0 16 16" fill="none" xmlns="http://www.w3.org/2000/svg">
<path d="M3.69332 13.0127C3.28666 13.0127 2.90666 12.8727 2.63332 12.6127C2.28666 12.286 2.11999 11.7927 2.17999 11.2594L2.42666 9.09938C2.47332 8.69272 2.71999 8.15272 3.00666 7.85938L8.47999 2.06605C9.84666 0.619382 11.2733 0.579382 12.72 1.94605C14.1667 3.31272 14.2067 4.73938 12.84 6.18605L7.36666 11.9794C7.08666 12.2794 6.56666 12.5594 6.15999 12.626L4.01332 12.9927C3.89999 12.9994 3.79999 13.0127 3.69332 13.0127ZM10.62 1.93938C10.1067 1.93938 9.65999 2.25938 9.20666 2.73938L3.73332 8.53938C3.59999 8.67938 3.44666 9.01272 3.41999 9.20605L3.17332 11.366C3.14666 11.586 3.19999 11.766 3.31999 11.8794C3.43999 11.9927 3.61999 12.0327 3.83999 11.9994L5.98666 11.6327C6.17999 11.5994 6.49999 11.426 6.63332 11.286L12.1067 5.49271C12.9333 4.61272 13.2333 3.79938 12.0267 2.66605C11.4933 2.15272 11.0333 1.93938 10.62 1.93938Z" fill="#929292"/>
<path d="M11.56 7.30023C11.5467 7.30023 11.5267 7.30023 11.5134 7.30023C9.43336 7.09356 7.76003 5.51356 7.44003 3.44689C7.40003 3.17356 7.58669 2.92023 7.86003 2.87356C8.13336 2.83356 8.38669 3.02023 8.43336 3.29356C8.68669 4.90689 9.99336 6.14689 11.62 6.30689C11.8934 6.33356 12.0934 6.58022 12.0667 6.85356C12.0334 7.10689 11.8134 7.30023 11.56 7.30023Z" fill="#929292"/>
<path d="M14 15.167H2C1.72667 15.167 1.5 14.9403 1.5 14.667C1.5 14.3937 1.72667 14.167 2 14.167H14C14.2733 14.167 14.5 14.3937 14.5 14.667C14.5 14.9403 14.2733 15.167 14 15.167Z" fill="#929292"/>
</svg>
